<?xml version="1.0" standalone="no"?>
<!DOCTYPE svg PUBLIC "-//W3C//DTD SVG 20010904//EN"
 "http://www.w3.org/TR/2001/REC-SVG-20010904/DTD/svg10.dtd">
<svg version="1.0" xmlns="http://www.w3.org/2000/svg"
 width="700.000000pt" height="700.000000pt" viewBox="0 0 700.000000 700.000000"
 preserveAspectRatio="xMidYMid meet">
<metadata>
Created by potrace 1.14, written by Peter Selinger 2001-2017
</metadata>
<g transform="translate(0.000000,700.000000) scale(0.100000,-0.100000)"
fill="#000000" stroke="none">
<path d="M4180 6991 c-14 -5 -47 -13 -75 -19 -27 -6 -205 -46 -395 -88 -458
-102 -429 -98 -462 -67 l-27 26 -1061 -1062 c-583 -584 -1059 -1065 -1056
-1070 3 -4 0 -8 -7 -8 -30 -2 -114 -14 -129 -19 -10 -3 -28 -7 -41 -10 -138
-25 -368 -141 -496 -251 -205 -176 -350 -414 -400 -655 -6 -29 -14 -64 -17
-78 -13 -53 -11 -319 2 -392 58 -313 222 -579 472 -765 177 -132 406 -220 602
-233 14 -1 20 -4 13 -6 -6 -3 232 -249 531 -548 l542 -542 -1 -74 c-6 -232
148 -443 440 -603 148 -81 338 -147 495 -173 19 -3 55 -10 80 -14 64 -12 306
-6 365 10 81 21 207 84 248 125 21 20 36 40 33 42 -3 3 -12 1 -20 -6 -7 -6
-34 -12 -58 -13 -122 -2 -265 141 -370 370 -51 113 -48 106 -108 257 -135 342
-236 486 -390 558 -52 25 -77 31 -136 31 -41 0 -78 -5 -86 -11 -11 -10 -69 43
-313 287 -165 165 -298 300 -295 301 17 3 3107 4 3118 1 9 -3 12 -97 12 -423
l0 -419 -121 -243 -122 -243 38 -60 c79 -123 104 -162 170 -269 37 -60 82
-132 100 -160 17 -27 58 -93 90 -145 32 -52 64 -102 72 -111 9 -11 13 -47 13
-117 l0 -102 120 0 120 0 1 53 c1 133 3 139 59 232 29 50 57 92 60 95 4 3 9
10 11 16 2 5 82 134 177 286 94 152 172 280 172 285 0 5 -53 115 -118 245
l-118 236 1 418 c0 356 -2 420 -14 425 -8 3 27 11 78 18 319 44 630 242 820
524 73 108 157 309 176 422 3 22 10 63 15 90 15 86 4 320 -19 415 -109 454
-417 775 -867 907 l-62 18 99 155 c54 85 102 160 107 165 4 6 11 17 15 25 4 8
24 41 45 73 20 31 75 117 121 190 47 72 103 161 127 197 23 36 86 135 139 220
54 85 114 179 132 208 l34 52 -45 28 c-25 15 -46 29 -46 32 0 3 25 5 55 4 l54
-1 1 362 0 363 -308 1 c-169 0 -316 2 -327 5 -18 3 -75 13 -130 22 -17 2 -151
25 -240 40 -16 3 -43 7 -60 10 -16 2 -55 9 -85 14 -30 5 -71 12 -90 15 -19 3
-48 8 -65 11 -16 3 -43 7 -58 9 -16 2 -40 6 -55 9 -15 3 -43 8 -62 10 -19 3
-46 8 -60 11 -13 2 -42 7 -65 10 -22 3 -47 8 -55 10 -8 2 -35 7 -60 10 -25 4
-83 13 -130 21 -47 8 -98 17 -115 20 -16 2 -42 7 -57 10 -32 6 -29 39 -30
-281 l0 -200 -119 1 c-82 1 -119 -2 -120 -10 -5 -52 -3 -210 3 -219 5 -8 46
-12 120 -12 l113 0 2 -220 c2 -284 1 -265 16 -260 6 2 30 7 52 10 22 3 137 22
255 41 118 20 225 38 237 39 12 2 34 6 50 9 15 3 46 8 68 11 22 3 54 9 70 12
17 3 39 7 50 9 46 7 82 13 115 19 19 3 49 8 65 11 17 2 55 9 85 14 326 57 379
63 548 64 128 1 171 -2 168 -11 -5 -12 -772 -1220 -788 -1239 -6 -8 8 -22 46
-45 l55 -34 -1567 2 c-862 1 -1568 2 -1570 2 -2 1 285 289 637 641 353 352
641 643 641 646 0 3 -11 19 -24 35 -24 28 -24 30 -10 81 8 29 17 67 20 83 3
17 14 71 26 120 27 120 40 177 88 395 23 102 43 194 46 205 12 51 15 85 7 84
-4 0 -19 -4 -33 -8z"/>
</g>
</svg>
